/* XPM */
static char *_a592b2f7997411dfc04ed7c302a1875o2Xq458Sjtt2CjdH[] = {
/* columns rows colors chars-per-pixel */
"75 75 233 2 ",
"   c None",
".  c #080D04",
"X  c #2A2E24",
"o  c #034B03",
"O  c #095309",
"+  c #17530B",
"@  c #364D0D",
"#  c #374C0E",
"$  c #3B530E",
"%  c #3E560C",
"&  c #3D5311",
"*  c #3C5912",
"=  c #335512",
"-  c #196717",
";  c #1D711E",
":  c #256F1C",
">  c #257B24",
",  c #257722",
"<  c #347F24",
"1  c #445B0B",
"2  c #445B13",
"3  c #435719",
"4  c #4A630C",
"5  c #546A08",
"6  c #5A730B",
"7  c #466211",
"8  c #4A6413",
"9  c #4D6B13",
"0  c #4B641A",
"q  c #526C13",
"w  c #556B1C",
"e  c #54681A",
"r  c #547313",
"t  c #5B7414",
"y  c #5C7C14",
"u  c #5B7619",
"i  c #647B08",
"p  c #647B14",
"a  c #647C1B",
"s  c #495530",
"d  c #4E6123",
"f  c #566A27",
"g  c #5B7424",
"h  c #5E6F36",
"j  c #657B27",
"k  c #67793A",
"l  c #6C7A4A",
"z  c #606455",
"x  c #2D842B",
"c  c #34872C",
"v  c #368E31",
"b  c #389234",
"n  c #5E8117",
"m  c #6B8404",
"M  c #738B04",
"N  c #7B9203",
"B  c #7C970D",
"V  c #678717",
"C  c #728C19",
"Z  c #758E14",
"A  c #6D9317",
"S  c #739C1D",
"D  c #789417",
"F  c #7AA51C",
"G  c #469432",
"H  c #6C832B",
"J  c #768B27",
"K  c #7B9524",
"L  c #7A8B34",
"P  c #7A9535",
"I  c #7CA621",
"U  c #56A53D",
"Y  c #78884B",
"T  c #65B647",
"R  c #6B9A50",
"E  c #76C852",
"W  c #849A09",
"Q  c #819B1A",
"!  c #8BA40D",
"~  c #85A818",
"^  c #95AC19",
"/  c #8CBC1F",
"(  c #89B518",
")  c #92BE13",
"_  c #92BE1D",
"`  c #9AB618",
"'  c #92AA0D",
"]  c #A2BC19",
"[  c #A1BF0E",
"{  c #829927",
"}  c #869836",
"|  c #909F3D",
" . c #89A925",
".. c #94AA28",
"X. c #85B421",
"o. c #8ABB22",
"O. c #88B722",
"+. c #9BB32B",
"@. c #9ABA23",
"#. c #97A938",
"$. c #9CB734",
"%. c #89A13A",
"&. c #A5BB26",
"*. c #A4B928",
"=. c #A3BA35",
"-. c #9CC416",
";. c #95C11B",
":. c #9BC41B",
">. c #94C014",
",. c #ACCB0E",
"<. c #A6C50E",
"1. c #AECC11",
"2. c #A7C818",
"3. c #B1CE15",
"4. c #B3CF19",
"5. c #B5D11B",
"6. c #B8D31F",
"7. c #B3D015",
"8. c #ADD118",
"9. c #98C223",
"0. c #ABCB24",
"q. c #ABC42C",
"w. c #ADCB2A",
"e. c #A6C626",
"r. c #B3CE2C",
"t. c #B3CD25",
"y. c #B6D224",
"u. c #BBD523",
"i. c #B5D12C",
"p. c #BCD52B",
"a. c #BFD82B",
"s. c #A6C335",
"d. c #AAC533",
"f. c #ACCA34",
"g. c #B1C433",
"h. c #B2CD33",
"j. c #BDCE3D",
"k. c #B6C938",
"l. c #B5D434",
"z. c #BBD534",
"x. c #BDD834",
"c. c #BCD239",
"v. c #C2D92D",
"b. c #C2DB26",
"n. c #C5DB33",
"m. c #C8DD36",
"M. c #C4DB3B",
"N. c #CADE3A",
"B. c #C5D339",
"V. c #C2CD39",
"C. c #C6E129",
"Z. c #CDE13D",
"A. c #CCE134",
"S. c #D5EB3C",
"D. c #D8EA3E",
"F. c #D2E638",
"G. c #869453",
"H. c #97A944",
"J. c #A9BA47",
"K. c #AFBC4E",
"L. c #8B966B",
"P. c #97A36F",
"I. c #A9B373",
"U. c #BACA49",
"Y. c #B7CA55",
"T. c #B9D14F",
"R. c #92E766",
"E. c #8DE262",
"W. c #B9C461",
"Q. c #C3D443",
"!. c #CADD43",
"~. c #CCDC4C",
"^. c #C6D846",
"/. c #D0DE4F",
"(. c #C8D556",
"). c #D1DE56",
"_. c #C3CD55",
"`. c #CEE241",
"'. c #D2E444",
"]. c #D5E64B",
"[. c #D9E94E",
"{. c #D7E948",
"}. c #CEE153",
"|. c #D5E452",
" X c #D9E655",
".X c #DCEA53",
"XX c #DEEA5A",
"oX c #D7E55B",
"OX c #E2EE5C",
"+X c #E0EE57",
"@X c #E4F15F",
"#X c #CCD963",
"$X c #D4DC67",
"%X c #D6DC7A",
"&X c #D9E565",
"*X c #D7E672",
"=X c #E5ED65",
"-X c #E6F162",
";X c #E9F366",
":X c #ECF56B",
">X c #E4EC79",
",X c #EDF472",
"<X c #EBF37A",
"1X c #F0F572",
"2X c #F3F974",
"3X c #F4FA7B",
"4X c #F1F67D",
"5X c #F1F96F",
"6X c #AEB689",
"7X c #B5BAA1",
"8X c #99A086",
"9X c #CBD294",
"0X c #EBF389",
"qX c #F4F987",
"wX c #EDF494",
"eX c #F6FA9C",
"rX c #F6FA97",
"tX c #E5EC81",
"yX c #CBD0B1",
"uX c #DEE4AE",
"iX c #FAFDAB",
"pX c #F6FBA5",
"aX c #E2E7B3",
"sX c #FAFCB5",
"dX c #FCFEBC",
"fX c #FCFDBB",
"gX c #F7FAB6",
"hX c #E4E8AD",
"jX c #E7EBC8",
"kX c #E4E7D2",
"lX c #F1F4D6",
"zX c #FBFDE8",
"xX c #D9DEC3",
/* pixels */
"                                                                      - G T T T U G :                                                                 ",
"                                                                    c E E.R.R.R.R.E.E ,                                                               ",
"                                                                  o v E E.R.E U E T c +                                                               ",
"                                                                  - c x v G c : ; - o                                                                 ",
"                                                                o x b v c c > ; > O                                                                   ",
"                                                                o x b b c b x > ; o                                                                   ",
"                                                                O x v v x b b v ;                                                                     ",
"                                                                O > x x > b b b -                                                                     ",
"                                                                o ; , > ; x x c -                                                                     ",
"                                                                o - - - = 0 f f 0 =                                                                   ",
"                                                                  + 7 L K.$XtX>X*X_.| w                                                               ",
"                                                                3 H #XwXiXdXdXdXdXsXrX&X} 2                                                           ",
"                                                      3 e 3   0 J.0XiXdXdXdXdXdXdXdXfXiX<XK.e } J.} w                                                 ",
"                                                  k I.9X9XL w #XrXsXdXfXdXdXdXdXdXdXfXfXiX3XY.L ).-X(.} 3                                             ",
"                                              d I.pXeXqX_.L &XpXdXdXdXdXdXdXdXdXfXfXfXfXfXpX,XU.} OX@X+X#.3                                           ",
"                                            f 9XiXqX3X&X} $XpXdXdXdXdXdXdXdXdXdXfXgXsXsXgXsXeX;XJ.J.OXOXOX=.2                                         ",
"                                          k 9XiXqX2X1XH.$XpXdXdXdXdXdXdXdXsXpXrXqX<X,X,X,X:X,X=XOX=.).@X+X X#.2 j e                                   ",
"                                        h 9XpX3X2X3X_.(.rXdXdXdXdXdXsXpXqX,X;X:X;X-X-X-X=X=XOX=X@X/._.+X+X+X/.J %.T.H                                 ",
"                                      f 9XeX3X2X2X:X$XqXfXdXdXdXsXeXqX:X:X;X;X;X-X-X-X-XXXOXOXOX+X+X/.+X+X[..X^.j Y.Y.*                               ",
"                                    3 I.rX3X3X2X2X5XqXsXdXdXfXeX4X5X:X:X;X:X;X;X;X-X-XOX-X@XOX+X+X+X.X.X[.[.[..X=.H J.*                               ",
"                                  # P.rX3X2X2X2X2X3XiXfXdXpXqX,X:X:X:X;X;X;X;X;X-X-X-X@X=XOXOXOX+X+X[.[.[.[.[.'.].J 0                                 ",
"                                  G.qX3X2X3X3X2X2XeXlXiXrX1X:X:X:X:X;X-XOX=X=XOX-X=XOXXXOXOXOX+X+X+X+X+X[.].].'.].k.2                                 ",
"                                g tX3X3X2X2X2X2XqXfXpXqX:X:X:X:X=XOXXXXXXXXXXXXXoXXXoX X X X X X).)./././.oX/.'.'.`.K                                 ",
"                              3 W.4X2X2X2X2X2X3XpXrX2X5X:X4XqXrX<X X).)./.).~./.~./.~.~.~.~.~.~.~.^.~.!.=XpXwX>X].`.k.0                               ",
"                            @ %.4X2X2X2X2X2X2XqXqX5X:X,XeXgXdXdXgXeX&X^.Q.Q.Q.U.Q.j.V.Q.j.j.B.V.j.V.c.U.0XgXpXwX>X`.Z.K                               ",
"                        g H j *X2X2X2X2X1X2X2X2X,X:X,XpXiXeXwXpXgXdXiX>X^.g.g.g.g.k.g.d.g.=.=.*.=.q.q.*XgX0X|.'.Z.Z.Z.*.2                             ",
"                      w Y.H Y.2X2X2X2X2X2X:X,X1X:X:XqXrX:X;X;X;X<XpXgXgXwX).q.&.&.&.*.*.&.&.*.*.&.&.~.eX>X!.Z.'.M.z.m.m.C                             ",
"                      %.H.} 2X2X2X2X2X2X5X2X:X:X:X,XqX;X;X;X;X=X=X-X<XpXgXiXtX^.&...^ ^ ^ ^ ^ ^ &./.wX*X`.`.!.M.{ u ..m...$                           ",
"                      } H $X2X2X2X2X1X5X5X:X:X:X;X,X:X;X;X;XXXXXOXOXOX@X,X0XpXwX>X~.k.*.&.*.q.B.].>XoXN.N.N.M.+.p *.a &.z.t                           ",
"                      3 H.2X2X2X1X1X5X5X:X:X:X:X:X;X;X;X(.} J L } U..X[.|.]..XoXXXoX].'.'.`.'.!.!.M.M.B.z.z.p.C 3 q.{ ..n.Q #                         ",
"                      f &X2X2X2X5X5X1X:X:X:X:X;X;X;X;XJ.H J.).).J 2 { T.'.'.!.!.!.!.M.N.M.M.x.x.z.z.i.l.r.r.&.h l a p.p.v.&.2                         ",
"                    & J.2X2X5X,X5X:X:X:X:X:X;X;X;X;XU.j ^.-XOXk.1 L.L.j $.c.x.x.c.z.z.l.l.l.i.i.i.r.w.0.0.0.C G.9Xf q.v.v.p.p                         ",
"                    j :X1X5X1X1X:X:X:X:X;X;X;X;X;X@X(.).OX+X^.i d uXuX6XH D h.r.r.h.i.r.r.w.0.0.w.0.0.e.0.^ # s yXl Q v.u.v.Q #                       ",
"                  e (.1X5X5X:X:X:X:X:X:X;X;X;X=X@X@X@X@XOX+X*.1 G.uXuXaX9XL.V ..0.w.0.w.0.0.0.e.0.0.0.e.Q j s . 8XL.p b.v.u.] 1                       ",
"                1 H.1X5X5X1X1X:X:X:X;X;X;X;X=X@X@X@X@XOXOX/.W # P.uXuXuXuXuX6Xd t ~ ` q.e.e.e.e.e.] ( V Y yX8X. 7X8X5 y.b.u.b.p                       ",
"                j &X5X5X5X:X:X:X:X;X;X;X;X;X=X@X@X@XOXOX+XQ.N 1 L.aXuXuXuXuX6XX . s Y f V C Z C V t 2 8XlXzXkX7XlXG.5 t.u.6.b.Q #                     ",
"              2 _.1X1X1X:X:X:X:X;X;X;X;X=X@X@X@XOXOX+X+X+XB.B 4 h uXuXuXaXaX8X. . z kX3 i +.+.+.*.q.i l kXzXzXzXxXd i 4.u.y.6.] 8                     ",
"            # | 1X1X:X:X:X;X;X;X;X;X;X@X@X@X@XOXOX+X+X+XXX!.W m & 6XjXjXlXlXxXs X yXL.3 W m.m.m.m.v.' 5 h 7XkXyXl 5 ! 6.6.6.6.6.Z                     ",
"            j =X5X:X:X:X1X;X;X1X;X-X@X@X=XOXOX+X+X+X X+X.X[.^ M 5 s 7XlXzXzXzXlXkX8X1 i ] N.n.n.n.v.p.W i 5 f e 6 W ] 5.6.6.5.5.] 8                   ",
"          3 K.5X:X:X:X:X;X;X;X=X-X=X@X@XOXOX+X+X+X X+X X[.[.V.W N 5 s L.7XkXkXyXl 1 i W p.B.n.v.v.v.v.0.W m i M W ! 5.6.5.5.5.7.4.B $                 ",
"          } :X:X:X:X:X;X;X;X=X=X@X@XOXOXOX+XXX+X.X.X.X.X].].].q.W N i 5 2 d d 1 5 i W ] n.n.n.r.@.Q C a p t t q 5 M ] 5.5.6.4.4.3.2.t                 ",
"        w $X:X:X;X1X;X;X;X;X=X=X@X@XOXOXOXXXXX.X.X.X].[.].{.{.'.t.W N N M M M M N W ] v.i.^ C a a %.K.T.(.$X#XT.J.{ t Z 2.7.4.7.3.3.` 1               ",
"      # #.5X:X:X1X;X=X=XXX=X1X1X1X:XOX+X+X.X.X.X.X].[.].].].'.'.'.N.&.^ W W W ! ] q.&.C t J H._.&X&XoX}.}.}.}.oX).$XU.C p <.3.3.4.1.8.M #             ",
"      g &X:X:X;X;X;X;X X#.XX1X1X1X1X1XXX.X.X.X[..X[.].].].'.'.'.!.Z.Z.A.n.v.z.w...p p } U.}.`.n.p.y.t.` ` ` ] 4.u.u.a.i.i Z 7.1.1.1.1.[ 4             ",
"    h H.<X1X:X;X-X=X;X_.a V.$X1X1X1X1X=X.X.X[.].].].].'.'.`.`.`.Z.Z.Z.Z.x.w. .r t ..j.M.i.u.y.t.` C q 2 * * 1 q Z ` 1.4.Q p 1.1.1.,.1.1.A @           ",
"  } %XqXrXrXqX;X-X=X;XV.e *.V.V.Q.^.~./..X[..X].].{.].'.`.`.`.`.Z.Z.c.e.I r t ..r.i.y.y.u.t.@.C a V J K K J V 0 $ a q.0.W t <.3.1.,.,.,.( 7           ",
"e Q.@X;X1X4X4X;X@X@X=XOX| a { ....#.^.+X[.[././.{.'.'.'.`.`.`.`.B.9.I r t ~ t.y.u.i.b.p.r.+. .$.=.d.d.d.s.s.s.s...$.d.d.~ 4 ~ 3.,.,.,.,.-.V           ",
"q M.D.D.{.[.+X=X=XOXOXOX+X_.#.#.=.~.[.[.[.[.B.F.'.'.'.`.`.Z.x.e.~ u u  .w.i.i.a.v.p.r.d.s.=.s.s.s.s.s.s.s.s.s.s.s.s.d.=.2.B q ( ,.,.,.,.-.F *         ",
"# ..D.S.S.S.{.@X@X@XOXXX+X+X+X+X+X[.[.[.].].f.!.`.'.`.`.M.f.X.n q D e.i.i.v.v.v.r.d.s.s.s.s.s.s.s.d.d.q.q.q.q.w.q.q.e.0.,.1.M r ) ,.,.,.-.( r         ",
"  w =.Z.{.{.+X@X@X+XXXXX+X.X.X[.[.[.[.].'.^.K c.`.`.Z.l.o.V 8 C e.i.a.n.n.v.p.d.s.s.s.s.d.q.w.r.y.0.4.8.3.3.8.1.1.1.1.3.,.,.,.p n >.! ,.>.;.A =       ",
"  } Q.|.+X@X@X@XOX+X+X.X.X.X[.[.[.].].'.'.V.u o.A.T.9.S q a @.r.v.n.v.v.v.g.d.d.f.w.t.y.y.5.5.5.5.5.5.4.3.3.3.1.3.1.,.,.,.,.,.<.5 n m <.:./ F * g     ",
"@ #.x.XX-XOXOX+X+X+X+X.X.X.X[.[.].].].'.'.V.8 I 9.I r r  .r.a.n.n.n.v.a.h.r.r.y.u.u.u.u.6.5.5.5.3.5.4.1.3.3.3.3.1.1.,.,.,.,.,.,.) % * <.;.;.;.n H.P   ",
"&  .l.|.-X@X+XXXXX.X.X.X[.[.[.].].].'.'.'.M.8 8 n r D f.x.n.n.n.v.v.a.p.p.u.u.u.u.y.6.6.5.5.5.5.4.3.3.3.3.1.1.1.1.,.,.,.,.,.,.,.,.4 5 <./ / / A P (.0 ",
"& ..l.`.OX+X+X+X.X.X.X[.[.].].].'.'.'.'.`.'...@ 0 @.l.n.n.n.v.v.a.a.u.a.b.u.u.u.y.6.6.5.5.5.4.3.3.3.1.3.3.,.1.,.,.,.,.,.,.,.,.,.F % N ,./ / / F H #Xj ",
"= ..c.l.|.XX.X.X.X[.[.[.].].].].'.'.Z.'.N.N.M...9 C q.n.v.v.v.v.b.v.v.u.u.u.u.6.6.5.5.5.4.7.3.3.3.3.1.3.,.3.,.,.,.,.,.,.,.,.,.,.<.<.,.-./ / / X.9 %.7 ",
"#  .l.l.M..X.X}.[.[.[.].].'.].`.'.Z.'.Z.'.N.A.Z.l.....w.n.v.v.v.p.p.u.u.u.u.6.5.6.5.5.4.5.3.3.3.3.1.1.1.,.,.,.,.,.,.,.,.,.<.<.,.,.,.,.>./ / / X.: $   ",
"@ K l.l.l.!.}.J T.{.{.].].].'.`.Z.Z.Z.Z.N.N.n.n.m.m.v.v.v.v.p.b.u.u.u.6.u.6.5.6.5.5.4.4.3.3.3.3.,.7.,.,.,.,.,.,.,.,.,.,.,.,.;.<.,.,.,.>./ / / X.9     ",
"  u f.l.f.f.c.u X.{.{.'.'.`.'.`.Z.Z.Z.N.m.m.A.p.D *.v.v.v.u.b.p.u.u.u.u.6.6.5.4.5.5.3.7.3.3.3.1.7.,.,.,.,.,.,.,.,.,.,.,.,.-.;.-.,.,.>./ / / o.X.8     ",
"  2 o.f.f.f.f.J V z.'.'.'.`.Z.Z.Z.N.m.Z.m.n.p.~ t r.v.b.p.u.b.u.u.u.6.6.6.6.5.4.7.3.3.3.3.1.3.1.,.,.,.,.,.,.,.,.,.,.,.,.2.;.I :.8.,./ / / / / X.*     ",
"    H f.f.f.f. .r ) M.'.'.`.Z.Z.Z.N.m.N.n.n.:.V Q v.v.p.v.u.u.u.u.y.6.5.5.5.7.4.3.7.3.7.1.3.1.,.,.,.,.,.,.,.,.,.,.,.,.,.-.o.;.;.-.>./ / / / o.F *     ",
"    & { s.s.s.s.r F :.Z.Z.Z.Z.N.N.n.m.n.n.8.) 6 ..v.u.p.p.u.6.u.6.6.5.5.5.7.4.4.3.3.3.3.7.,.,.,.,.,.,.7.7.,.,.,.,.,.8.-.;.o.o.;.;./ o.o.o.;.;.V @     ",
"      7  .s.s.s.K y >.2.n.Z.N.N.N.m.n.n.x.-.( r &.t.e.u.u.u.6.6.6.6.5.5.7.5.4.3.7.1.1.,.,.7.,.,.7.C.A.F.S.S.C.7.,.,.-.;.o.o.o.o.o./ o./ o.;.I 8       ",
"        2 J $.s.$.r B >.2.x.N.m.n.n.n.v.p.>.) r &.t.o.9.y.y.6.6.4.5.5.5.3.3.3.3.3.1.1.1.,.,.,.,.C.D.D.D.S.S.S.8.,.-.;.o.o.o./ / o./ o.o.o.o.A *       ",
"          @ u K $.K r ( ) ;.y.n.n.n.v.v.y.>.) t ^ r.o.o.@.2.6.5.5.4.7.7.3.3.3.1.1.3.,.,.,.,.,.b.D.D.D.D.S.S.C.-.F ;.o.o./ / F F o.o./ o.;.I 8         ",
"                8 u 2 V ) ) ) :.0.p.a.a.2.>.>.M A 5.o.o.o.o.9.0.5.5.7.5.1.1.3.1.1.1.,.,.,.,.,.b.D.D.D.D.F.C.8.;.n F 9.;.I ;.< S / / ;.;.I y           ",
"                      $ A ) ) ) >.>.-.:.>.) >.F r 2.9.O.o.o.O.9.9.2.1.7.7.1.1.1.,.,.,.,.,.,.,.5.C.A.C.b.5.8.9.I 7 F O.O.o.A n o./ / ;.I r             ",
"                        % A ) >.) ) >.) ) ) ) ) V Z 2.o.O.O.o.o.o.o.9.9.2.2.2.,.1.,.,.,.,.,.2.9.:.9.:.@.;.o.F 7 7 X.o.o.I 9 I 9./ / A 7               ",
"                          $ m ( ) ) ) ) ) ) ) >.~ 6 ~ @.O.o.o.o.O.o.O.o.o.9.;./ ;.;.;.;._ 9.o.o.o.o.X.S V 9 * 8 I o.o.O.n n I F n 9 =                 ",
"                            @ r F ) >.>.>.) ) ) >.! 6 F o.o.O.o.o.o.o.o.o.o.o.O.O.o.o.o.o.o.o.o.o.o.o.I S S F O.o.o.O.y * r 9 *                       ",
"                                * m ~ ) >.) ) >.>.>.F 5 J o.o.O.E 9.o.o.O.o.o.o.o.O.o.o.o.o.o.o.o.o.o.o.o.o.o.o.o.( r @                               ",
"                                    1 y A F ) >.>.>.>.) n u I o.9.I o.o.o.O.o.o.o.o.O.o.o.o.o.o.o.o.o.o.o.o.o.o.S 9                                   ",
"                                        % 4 5 n m A A A V 7 * n I I o.o.o.o.o.o.o.o.o.o.X.O.o.o.o.o.o.o.o.o.I n *                                     ",
"                                                                2 u S I O.o.o.o.o.9.o.9.o.o.o.;.o.o.O.X.S y 7                                         ",
"                                                                    = 7 u V S I I I X.I I o.I I I A y 0 &                                             ",
"                                                                            * * < 9 r r y 9 9 7 * @                                                   "
};
