/* XPM */
static char *_d2ee7c6d15c4aaeaf7f73655738f916GRC682583hJbby8r[] = {
/* columns rows colors chars-per-pixel */
"100 100 77 1 ",
"  c #2E1F26",
". c #2B1F28",
"X c #301F24",
"o c #301F28",
"O c #2E2026",
"+ c #24242E",
"@ c #2D212A",
"# c #27282F",
"$ c #29282F",
"% c #312127",
"& c #322229",
"* c #262631",
"= c #292733",
"- c #272832",
"; c #2A2A35",
": c #2E2D3A",
"> c #302730",
", c #302F37",
"< c #312E3C",
"1 c #2F303A",
"2 c #313037",
"3 c #32323D",
"4 c #38353E",
"5 c #39383F",
"6 c #2F2E40",
"7 c #312F40",
"8 c #353542",
"9 c #373544",
"0 c #373744",
"q c #383643",
"w c #393643",
"e c #373842",
"r c #373843",
"t c #383842",
"y c #3A3842",
"u c #393A43",
"i c #3B3A45",
"p c #393A47",
"a c #3C3944",
"s c #3E3B45",
"d c #3C3946",
"f c #3C3B47",
"g c #3C3C46",
"h c #3D3E47",
"j c #373748",
"k c #393748",
"l c #3B3A48",
"z c #3B3B4B",
"x c #3C3D49",
"c c #3D3C4B",
"v c #3F3D4A",
"b c #3D3E4A",
"n c #3C3C4C",
"m c #3D3D4D",
"M c #3E3E4D",
"N c #3E3D4E",
"B c #403D46",
"V c #403E49",
"C c #413F4A",
"Z c #403E4B",
"A c #413E4B",
"S c #413F4D",
"D c #403E4E",
"F c #413F50",
"G c #3F404C",
"H c #434047",
"J c #42404B",
"K c #44424B",
"L c #40414C",
"P c #43424D",
"I c #45424E",
"U c #45434E",
"Y c #49444E",
"T c #414151",
"R c #444351",
"E c #474450",
"W c #494551",
/* pixels */
">133118333133332323131333;13<34:,411111;::;1133<<4::11:;1;::1:1233<3,,;;<:;=:43::;1;;;;1111;;3331;;1",
" ;1:33eeixmxGGGGbgbbMbxxi-1iwlBsw813311111;tttCCaa88rrregbllbgGgMLgLgggtagB34siii3e3;123113;;Grgu33G",
"@:31133erxmmGGGGGTGMir8rr;8isCKCLw:4533331;8aCLLbb38rrxxxMMMMMGTTDLTKKWKLDB49bbjirMr13e33rr1;iixetGG",
"%188e333rpxiGgGGMMMMxir9i;3iCCLSbw:4e33333-8gBLLLb8<88rperlxGGGGLLTLLLDbcis,8xbigxG8;ri38rr1;GGpeGgG",
" :ttgte48ibbxbbbpi9rc0088-8lMLKFMr:re8333:*icCRLLb789ir8rixxbgbbGGbbLLLMCCl38bllbbG318r888r;*lbixxMg",
" ;:34igi88isegigilir88:<1-8xCKDDT9;9e88i3:=iCLYKLM:888888r9xbbiblbilbDLGDCb88bixbxx118889j81-llixGxi",
"O;:,:<3tbga4ww00r99l8w088;8MLKFLM3;st88848:wCRKDKb;:8888iilplilbxxliibgibsl18bixbGx1;rr88je:;lllxMxg",
"@==:,,::35wssww0irreieww8;3MTLDDL8;w08tg8<;wCRKDDC;;:81889ei9ibblrr9s081:3:;3xiMGGx11r9prle;*lsbMGxg",
" +*****.$$=;,<<<<<>7<><===3ZKDLDL8;r00cs88-rCKFDDD:=====;;;;;:,<<===;=$++++*<ibbMbG318irllr;=wbcLMGL",
" *;:==:::,<7888<7777::=<:*<CKLLDL8;9r9tcb9;rDKDFcD:=:<=<:34wiw84<<442::;;;;*1sbbMRL:18irrli1=8lCLGRb",
" =:76<778ww884887999k9777=3CRKLDM8;pwwiil9;9bRLLcD:=:,888exiBBCBBww8433<:;;*1lbCGRL318rxipi3=8xFbLLL",
"o=:66:<<:8wwwkkkkkBB77878:3CDYDRM9;9w0klbr;rCWRSFD;=<<68334<<<8iBBB4443<6;;*6lDGGLG4:r9r9xx3;8BLDLTb",
"o;::6666777B9www099<77777;9cLYKLRe;etsilC8=aCKRKDW<=:::&<<<7<<8444aBB<3<6:=*3cTRKRTr:r9p8rm8;rLRRRTD",
"o;::>6:67779877799797<7::=8cgKWLb4=w0l9iL4;wbCKRBC;=:==:<<87008<<<<8tBw86:=*4MTRYTG81jixr9lr;iTRWRDK",
"o===66><779997w79797776<:*<0gbWUG3;wiirrCw;8sxMKFc:@===:<:7<<<<<<:<<,8ww5t8;3MFRWRT98lxjxrrr;pTRWRDK",
"o=:<>66<<777997w777:::7:;*8sgbGLK3;wii8iBs,wiibCRM;*==:;;::><::<:;;:;<,4443$3FRWYKLi3xlilxr8;xTRWRWW",
"o=;;;*****;;;;=:==********6jlrjGx*;9lr8rBB:0rr8gD4*+***+==*++=+*===*==##;,,@3bTKWRM98xjxij08;sFKYYKL",
"o::,788789r9rrtwee8ellp98;8rrrrlj;;rrr8rB5:8iites4#:<<<<<<::=;:;::,<<34443;#8bLKWFF9:ixb89s3:cFKKYCL",
"o=<<1<88ilMLMFLLGMGbxl9lr;1rrrrxM3:9ri8rga:8rre8ci;8ddd0dd0klls8wswCCHHs43;=ibLRYDM81rrjcec<:0LDKKBC",
".:8<8878iiigMTFDCCCbxlr9x;1err8rx9:rlrlrsa:99reetc380dZsZdzzMMllCCCLBt43,,;:8cLKCDM8:rrrll0<;sbGKKCC",
"X<w0ww48waabcZZbblbMllr88;1ee88er8:rrrlpsa,4888eti78iisclbDbbCCCGDs84331,:2;5eMLCDD81rrrelr1:llMSKDC",
"o;<8wbiw8siiiZccsww993811;118e88r81ilrl9wa:33888e88rri00ssC0bCbsxp093833,:;#8bbLCYC41r8r8rl1;lpMCCDD",
" =,,<8tBc8wwwwwswd9si8888;111e88881li9isws=388938r8rlbssllcZcCbwrr8e883333318lbbBCC41r8888r7;llbCCCb",
"O=;;<,;4wisiii9swwr9ir98r;118888881jreic8t=213r37r19lMCzbsscd0ck98e881313:1;8egisCb3;88818i1;rrlCCCM",
"@---;;*#-=;2<<77888<4338:*;111811::p9rrp8:#:3141:<<<0kkkslll99r84:333::<::=*8e8e0ss::8873:8:;89rwwkl",
"@-;;-####++++@=.*=3:::;*;*-11;--;;-;:1:::;=;:;;;;;@;:;:;;=;:888:<:===;**==+*;:;;=::::::::::=;:;;::::",
"@1l5848i:*;::<:>=;ibcwisG;:err886p9888ppiwit588488;:8;:;;;;:9988ww8:::;:::;*;:188889lixxlbZciibxbbli",
"&8g3igbL3*::<7<<;;bDCbDRR:;8r898r8pxxiiiigwweis8ww;<8::::::6ri00csw::3:<:4;*;7:3q889lbMMDZZFLMxis999",
"@ee8rxbG8*:777<8;=sCClDKR:;888rrrr8ri9isBBgBBlsww4=,8<:::::<9rriZw0:<7<w<7:+2443388ilsblDbzDMMbkl9ei",
"@3l8ribM8+:<7<77;=CCCBFKL:;3<8rrrrr88xGBDigasswww4-&9:<:6<<<irilc0w:<7<788<+3tgs848iibcMzdCdiicdi868",
"O3be9ibb<#;37788:*iCCcCKL:181381r888eiseiiwiil0093;:08<:<3:<i8llMsi<<w7<87<*;234gs44wtwsZZsCi80q8:::",
"O1xe8rxG3+;:7789:*0DKCiDL<:88188183388egst8884783:=;8i<<<8:3xlilCll<779<798;=:::34Basw8w009000dw8888",
"%1br8ibb6+>6<76B;*wCDKCDL11111888:;;;1111811188111*-40<<<<<<Cdkdbcs;:9979k9:;:::<;<4waaaBB99qq9wwwi8",
"@:br8ibb7.667767:*lbSKCDD:---**-**+*---*----*--==**:<Bw44<<<ddkCbCi;:979dd9=*****@**==;,<>6<<<,<::::",
" 3lieebL7=>67<6<:*wbCYCCM:*-;---*----;1;;;;;;;;-1;*-<ws<<<<qdkCDMbj;:97kkd0.*:;**;::<<88976<<<<:;;::",
" 8iiercL7=&<<76<:*wbsKDDb:*1111;;;111831111:::6833*:<8M4<8<<dCCDDMl;:9kkdck==676:889988<777kq99976<4",
"&<li0wlb8@::666<:=kkbCKCD:;:::61111111:118;:1111;;*;18iB8<<<dCDRSDb;<89kkkd>=<<<<<778Cd9BdqBslc97798",
"&8il089b0==:>766:=kDbsYCL3*;;;;;;111;:1111:811:;;;-;::8B48<4CDWDZZC=>87kdza;;<:67<9778990999j9<77987",
"&3ibs88ck=::77<6>=kCbcKKM7;;;;;;:111:171::8111::11--1<8Bw<<7DSWDDCn=7s90kdk>;;::<<77w7797979797777:;",
"&:ibw8899=>==6:::=8BCsDDM<=::::171116118881816::;1**:9<xB8,<CWKCFzn::7lkDdB==;:::=<777979709977777::",
"o,six88e9*==:6::==3bsssKG1#:::1111;111381817311:::=*<<<BB<,<CWCBDCb;;lknlll:;:;::6:6<78789888<:::::;",
"o,wbii896*=:::::==8sBcCDg1#*--=--;--;;;;;:;;;=;;-;**,,<4B4,<BWdiLLb=:99lsCl:;;;*==+=;=:::=>===******",
"o<8iir887=;===:::=7issgHe2;13:=;;;;;;:<:1:1:1:1:1:==,;,w44,<DYdsLbl*:9kiwib:;::3<7678<48ww97<38q7998",
"O,4wre83:*==:==:==<9wcsLG;1iet53eiggiilblbjjttttee>;;<<4B4<<KCdbMM9*:kcswCM:;63387wkCCDDCFDFDZcccbi9",
"@:488881*+*:;==:--38w8sg5+;3eerre8rxxislbswsitgtw8;=<::B44,3WCsDbMw*<swwBbl<:3337848sbscCDZDFCZdi9pe",
" :838381*+*;===;-*3848tBe+;18rr8re888iBBbCBBssee44==:<<w5333KDsCCbs;9sBBDDc<35eeww4w0CcZZCdBdZZCli89",
" :3188::*+=:==****3848gB4+1118ererrregBBgiciwss854;=,><454,3KbCCZc0;8iaBMMc::34bBw88qcsCZZZBdd9887::",
"@=1::8;1*.=:*=****3835ts3-1388181888iibisiiww84443==,><B4,:qLiCbcZd;<BczNzj;;:114wBdq0ww8w0kddd9888:",
"%=1:11;1*+;:+*+.*+:334ss3#,3888r88133eeeree5333112==;;3w<<<8NbbbGGi;3gBgD0c;;::1138ggswi09ir0ilreee8",
"%#:=;;;;*+**++++++;:3:t8:#:<1:;::;;;;;;;;;111121:;-#;-;4<:&<Lsgitte;35ggb8c:--*;;==;2234888988881831",
"O##*---=*-;;;-**;=;;;;:,:*=::;**-----#---#-;;;-=---+****;#+;114:#-;+$;:1:;;*;-*;##-++$=::::;;;--;-;-",
"&113334e8eie98jjsw0sgri08;3gxp98ie;:113311;1533131;;:1::;;;:::;:;1;;1:;;;;*=1111111=;4iww0l8::113111",
"&333334ewaacisc8wsstwl0r4-3tbieibi:338gt3313413133;::13<3:::1:1111;2;11;;:;;888e331;3icicki81438i311",
"&:13334aaaBsbbsaw8ttwiwwe-3tbeblb9;83eg4331te33331*:6:::::16:::11;;;;;;;;*-;8e18533;4e8C9jg338e3ree1",
"&:2144455t0wttiCdw89wwi98=3bblMMb8;83giee3;ee84451-191111::;1;;:;2;21;=;;;*-7re8e8e18s8xjei4:8888r81",
"&:,323424483344tCb89wweet=3biiMMm8;8eGbeee;e844t83*;38171::;::;::111131:*;**ipr888819gejxjx3:s0w8r86",
"&:::113383213134tbg8w4448=:bsbbDj8:4gCc8i8;ee8wt38-;33;3883333334,32:::;;;**ici8ee918gb0ljb13xw0rrr8",
"&=::1133333:1331<:4433333#:xibDCx:*sKbbsxr:8w0tse8;;8834388tw42,,:::;=;-;-*#8bierer14Lk0rre3;lb08rrr",
"&#-*-;;#+;;;;;;-*-*-==;1;+:wlbDbG8;BDcbiMl;8wwitti=#:::;;=====;,;;;;=-----=+:iseree:4Cw0rli3*4lsrprr",
"&#;:31:::;;;;3313:3131332+:wbDbRR3:HCCbbGM;9i8ttgt;:e481:35444889swqt558e83+:bLgjbr84Cc8ebr3*8Lb9ppi",
" =33334344333333818833313#1eMLbKK8,CCDDCRb;rlriegt;:rrrj880bCiljwil0t4wte53#tKRLlis3<Cttrbe1=LUKGxrr",
"X$,43444443333318<:631312-1iMLCDFw8KDBKDRb:rpe8ig5;;1888sw880clcCLbbBgst443#wFUKcii<<Ds0rli1;sKKGxxr",
" *>,::3:33:::3:11111111:1-1bFRKRFc4LDDRKTG;8iri9is;2188888w988csBBBgs4itt83#gKCWCbb:,Bc8rlt32LLDKLGi",
"&=;;;;;;;;::::::;:11:11;:-1xKRYRDswDDWRRWG:8jleegg=,887:8888wwbigtsiagst843#gYLDKbb,3sg8rtg3;KKLRGbg",
"O-;;;;;;;;;1:;:6:;111:11;-1MRRWKTi0CDKYKWC:4jirrGg=<8888818878lppxrj888181:=iLKDYDb<3aatati3;GGGSYCw",
"O-;;;;;;;;;;;1111;;;:;;:;#1GRKWRGgwCCRDRRM;8ijrrbb;:33838811111331881131111-cLLLKRC;3agt9ee3;GGGCRbw",
"O***+-----------1;;-#+#;-+1bRRWRMbibbLCRTM;8ii89bD;*:;**--*--*--;--;;;;;----CMCLYCC:3agisp93;TGGKKzs",
"O;e11;;11:1:1813333833331#3bLLWKMlibCCCRRb;wpi8rbC;@;;-;--*-;;111;;;:;;;1;;-sCDCKDc::isip9r1;TGGDKMd",
"+1erGeeeigbgiixgGeutt554w-3lLTRKbliMGGGRRb:i8l9ibb;;:11::;11:1361161:1118<1*sDFKKCg3:3w5re81;NTGKKFZ",
"@;883eee8esiigggGgtaaaa54-8lMKRKbi9MMbGRLb;8iripcb;;;1:::6:671::161::6861;-*iLWDKCg::3wt8er3;GLLRKDZ",
"@;6e6errre88bggLuggB5atw3*3ibLKKLi9MbiGGLb:8prlrii:*;;;;;:161;;1611116;1;:;*iMLKRbb3;3453ei3:FTLKDDb",
"$181e8888ri9Cbgxguggggt41-8sBKDKbi8bxrxxMb:8b8ir8i;+;;:::::1178:1181611:::;*cbLLDbs:;34438i3:LLKKCCg",
"&8888318388rlrxpibie88831-3igbgLbi8xi8lxbM:8lwdl9i;*1:1186111117881111:::;;;gGGKggG;13e333e11GGGGLsg",
"@33838r831111eee3333333:3-3eibgCb83x98rxbM:jiwdcii=*;;:::;1::1131681311:1:;;iGLLGGt1;13333t13GgLLgwt",
"@;;:;;;;-*--*;;-;;;1;:;;;#1e8wtaw47kr78j88;888w084*+*---------**-;;;--*----;83eit431;1::133;343tee34",
"@;;;-***+++**-**--;;;-**#+--**$$=**=*******;;=:==*+*+***;;-+*-;**##***---;;-**-;#-;---------#==;---;",
"&3elrr998-1111111;erz0990;+.****=*****==****==<:::*8rl88egr;889<18;:pli88er;-;;;:::1333333<,34331312",
"%egbnjlMr133338e1;xxljjnM;**===*=====:==;;:677<<:;*9bbi9rbj;889618::Mll98xx:;;;11132:38888wwww444333",
"O5GLnlMG818ee3er1;exllCbM;+*===*====:=><<B98:::==**9Mlbrrxi;68r888:8Niii8xx:;;1111334384tBBBBstt55u3",
"O3GtxMnM1;8e3eer1-eGlllbC;=<43<:=:::<7<ww7<::;;;;**8GbbiiGl;79r988::LMMgrGb:;883333134sBLgl9s0isuGu5",
"O3biibMb31er83rr1-iGibbDi==88444844www4<<;:;=::=;*+rLFLgsD0:99d799:4LMLggGG1;11:31884cBBsbzclllkGtue",
"O3GibbMi1;8ie8r91#ixcbMbi=.,<<<448444<<<:<::::=:;*+9RLKbCDD<9Dd9k9:<RLYCgGg1;11888eeiCBtCcc8j8lle5e3",
"O1gbbLbC318jrerr:-rmbbMCg*=,:3<<4,4<<&3<:::::::;:;+8RRLbCCZ<dDdkk9,,KWLCLDG1;1889re13eijcsllgrrbGGte",
"O1isbLbL3:rrirlr;-8lbCbbb*==>&,,;;====;;:=>=:;;;6**kRWTGCCc7dddkld<8LWKCLbG1;;;:::;*+-;;;;;;;;;;;;31",
"O1tbCCDR:19rjxii1;8iMxDRB=3w044<3<<,<343<3383:186;;jWWLLCCc<kBBk9k7<RRRSKsC3;;:::;;;;;;---;---;;-#--",
"O1ibDCKR11rrxlxr3-8lMLLRb:sbDBCLKKKCbbsww89rrr8r88:lRWMRCbs88Bbkdd87RWRDKbx3:8<361:7:6:111::;:;1111;",
" 2iLRLTG96r9i9lb8-8mDDKRB,8tw8B5wBCCKRDblw9r9r98881lWRDKCbi89kBkdl97KRLKDCb::::<171111661:1:::;1;;;;",
"&3bTRRRGr:lririxe-5MLURLM4sBgsBswwwwcFLGCww9r8r9888jWRRKCMw89kCwdl74RWRRKbM<::::1:1;::1:6:;;:1;;;;--",
"O3bTWWRFr1lprxrjt1eTRWWLD,8silxxlll0llMbCLgtd8d9888rTRRKBCs8wiDkkd84CWFWbsD:<883<<,;;;;:::<<:,<:;;--",
"O3LRWUKTr3xlrxl9r;eKRWYTT::iilxlllMMbbxbgggisZcdxp8rRGRLBK4,9lkB9k4<DFCRCCC<<88<4<<<<:<<11<<3,<:;;;;",
" 2CGWWRLr1iMxixre;wTRRYTD:8cbiblxxlkxbblbgasww008r3rWLLLCC3,9Dkkkk<<DWDCCDB=:4<,<4488w043<3,3===-;;-",
"X3BRWWKTr3llxirl3;sLRRYFF,<84883<398998ir8wwww9883;rKDLDCY,<klkk9k7<CDCFCDs==,,3<,,,<<;;;;;;====*-+#",
" 3sFFRKF91llxrrp3;GGRRYCM;.$****+.+**********===***8MsCbBD<<8w9908<<CCCCbKt+##-===;;;==;;=*$=-;--;-#",
"OqbFRRKFr6irixie3;egRDYBM;;4:,77:==:=:;;;;;:6==6:;*8cilsCB<&w99j7w<,BBddCKw#-;;;,,3<4<8<833454383333",
"&4bMRRRZ9;irjbbe3;ebRKYCC;<44<<k9777666;:6666666:;*8t89BB0<=8<9688<<dwddLt3==;:::38:888w8wtt8stt8333",
"O8scRDDZj:r8eegi3;ebLKCCM:<t4447799777666:666;=*6**3t4sCd4;=<88887;,w8qZH43==::81:88<8wwbbBggssgtee4",
"%8beDCKCw:8t8tee1;bbMGCLC:899844<8998877777<>::6;=*798iC43:+<<8877<<88sC044-131388:188gDCw0ciiiiiiit",
"O4eibCBC8:5833er7-ejbGCCs;:rpr988987899kkk9777=:::*688sB43:*:8<<<7:<<80Cq43*;1111188exLbaCZ0jlexlbge",
"@3brbcgs4;88e18r8;rrlCbBb;:899kkk9804<487999776::;=<:8bw333=8123:<::43cs<3,=;13888r9iLgtgbw98iliGue3",
"&3r9isbC3:3383181;rrwbsgt;68:89jkk8084<48<:<<:==** <<89333:;:1::::::<4q833<=;838rr83;etgLwsgbreitue8"
};
